<?xml version="1.0" encoding="utf-8"?>
<!-- Generator: Adobe Illustrator 16.0.0, SVG Export Plug-In . SVG Version: 6.00 Build 0)  -->
<!DOCTYPE svg PUBLIC "-//W3C//DTD SVG 1.1//EN" "http://www.w3.org/Graphics/SVG/1.1/DTD/svg11.dtd">
<svg version="1.1" id="Layer_1" xmlns="http://www.w3.org/2000/svg" xmlns:xlink="http://www.w3.org/1999/xlink" x="0px" y="0px"
	 width="86px" height="86px" viewBox="0 0 86 86" enable-background="new 0 0 86 86" xml:space="preserve">
<g>
	<rect id="retanggle" display="none" fill="#FFFFFF" width="86" height="86"/>
	<g id="XMLID_2_">
		<g>
			<radialGradient id="SVGID_1_" cx="43.5225" cy="42.1475" r="15.7785" gradientUnits="userSpaceOnUse">
				<stop  offset="0.6164" style="stop-color:#FB6016"/>
				<stop  offset="0.6227" style="stop-color:#FB6B17"/>
				<stop  offset="0.6454" style="stop-color:#FB8C19"/>
				<stop  offset="0.6687" style="stop-color:#FAA71B"/>
				<stop  offset="0.6925" style="stop-color:#FAB91C"/>
				<stop  offset="0.7172" style="stop-color:#FAC41D"/>
				<stop  offset="0.7439" style="stop-color:#FAC81D"/>
				<stop  offset="0.8101" style="stop-color:#FBC419"/>
				<stop  offset="0.8812" style="stop-color:#FDB70E"/>
				<stop  offset="0.9407" style="stop-color:#FFA600"/>
				<stop  offset="1" style="stop-color:#FD7C00"/>
			</radialGradient>
			<path fill="url(#SVGID_1_)" d="M33.724,42.167c0.004,1.004,0.158,1.973,0.443,2.887c0.079,0.248,0.166,0.494,0.263,0.736
				c1.456,3.614,5.001,6.184,9.12,6.184c4.284,0,7.962-2.767,9.288-6.544h3.722h3.114c-0.512,2.512-1.593,4.79-3.114,6.737
				c-0.002,0.001-0.004,0.025-0.006,0.027c-2.982,3.817-7.626,6.284-12.848,6.284h-0.024c-8.993,0-16.311-7.331-16.311-16.327
				v-0.065c0-8.966,7.34-16.059,16.311-16.23h0.024c0.124,0,0.245-0.042,0.367-0.04c0.032,0.002,0.065,0.002,0.098,0.002
				c0.01,0,0.017,0,0.024,0c0.203,0.001,0.406-0.003,0.607,0.009c0.243,0.017,0.481,0.027,0.72,0.055
				c0.22,0.024,0.438,0.048,0.655,0.083c0.109,0.017,0.218,0.033,0.325,0.051c0.107,0.019,0.217,0.036,0.322,0.059
				c0.216,0.043,0.428,0.087,0.639,0.138c0.107,0.025,0.212,0.051,0.316,0.079c0.104,0.028,0.21,0.055,0.313,0.086
				c0.105,0.029,0.208,0.059,0.311,0.091c0.105,0.031,0.206,0.063,0.31,0.097c0.103,0.034,0.204,0.068,0.306,0.103
				c0.202,0.07,0.402,0.189,0.603,0.266c5.077,2,8.92,6.478,10.05,11.973h-0.021h-2.403h-0.06h-1.374H52.8
				c-1.36-3.778-4.974-6.472-9.216-6.472c-4.253,0-7.871,2.639-9.226,6.451c-0.066,0.189-0.128,0.38-0.184,0.574
				c-0.244,0.855-0.377,1.764-0.382,2.709H33.724z"/>
			
				<radialGradient id="SVGID_2_" cx="54.1211" cy="71.9131" r="39.1942" gradientTransform="matrix(0.6902 -0.7236 0.8752 0.8348 -46.1718 51.0385)" gradientUnits="userSpaceOnUse">
				<stop  offset="0.2279" style="stop-color:#00A7F1"/>
				<stop  offset="0.2331" style="stop-color:#00A6F1"/>
				<stop  offset="0.3574" style="stop-color:#0091F1"/>
				<stop  offset="0.4805" style="stop-color:#0085F1"/>
				<stop  offset="0.6001" style="stop-color:#0081F1"/>
				<stop  offset="0.62" style="stop-color:#0081F1"/>
				<stop  offset="0.7362" style="stop-color:#0081F1"/>
			</radialGradient>
			<path fill="url(#SVGID_2_)" d="M62.019,60.825c1.917-1.894,3.541-4.081,4.801-6.487c1.589-3.035,2.601-6.421,2.887-10.009
				l0.074,14.908v0.002v3.875v0.292c-0.964,3.972-4.542,6.919-8.809,6.919c-3.069,0-5.782-1.525-7.421-3.86
				c1.038-0.427,2.042-0.919,3.007-1.469l0.002-0.022c0.517-0.293,1.018-0.601,1.511-0.928c0.001-0.002,0.003-0.007,0.006-0.008
				c0.839-0.557,1.641-1.161,2.406-1.809c0.056-0.046,0.108-0.091,0.161-0.137c0.002-0.002,0.002-0.003,0.004-0.006
				c0.158-0.133,0.313-0.271,0.467-0.409C61.424,61.4,61.726,61.117,62.019,60.825z"/>
			<radialGradient id="SVGID_3_" cx="43.5962" cy="42.2534" r="26.3129" gradientUnits="userSpaceOnUse">
				<stop  offset="0.6573" style="stop-color:#00A7F1"/>
				<stop  offset="0.8495" style="stop-color:#00A7F1"/>
				<stop  offset="1" style="stop-color:#0081F1"/>
			</radialGradient>
			<path fill="url(#SVGID_3_)" d="M33.724,42.167h0.069c0.005-0.946,0.138-1.854,0.382-2.709c0.056-0.194,0.117-0.385,0.184-0.574
				c1.354-3.812,4.973-6.451,9.226-6.451c4.242,0,7.855,2.694,9.216,6.472h3.013h1.374h0.06h2.403h0.021
				c-1.13-5.495-4.973-9.972-10.05-11.973c-0.2-0.077-0.4-0.196-0.603-0.266c-0.102-0.034-0.203-0.068-0.306-0.103
				c-0.104-0.033-0.204-0.065-0.31-0.097c-0.103-0.032-0.205-0.062-0.311-0.091c-0.103-0.031-0.208-0.058-0.313-0.086
				c-0.104-0.027-0.209-0.053-0.316-0.079c-0.211-0.05-0.423-0.097-0.639-0.139c-0.105-0.022-0.215-0.042-0.322-0.061
				s-0.216-0.036-0.325-0.053c-0.218-0.034-0.436-0.063-0.655-0.087c-0.238-0.027-0.477-0.048-0.72-0.065
				c-0.201-0.014-0.404,0.007-0.607,0.012c-0.008,0-0.015,0-0.024,0c-0.032,0-0.065,0-0.098-0.002
				c-0.122-0.001-0.243,0.04-0.367,0.04h-0.024c-8.971,0.171-16.311,7.264-16.311,16.23v0.065c0,8.996,7.317,16.327,16.311,16.327
				h0.024c5.222,0,9.865-2.467,12.848-6.284c0.002-0.002,0.004-0.026,0.006-0.027c1.521-1.947,2.603-4.226,3.114-6.737H56.56h-3.722
				h-0.031c-1.351,3.789-5.006,6.502-9.257,6.502c-4.119,0-7.663-2.542-9.12-6.142c-0.097-0.242-0.184-0.488-0.263-0.736
				C33.882,44.14,33.728,43.171,33.724,42.167z M69.78,41.193v0.029v0.014v0.072v0.766v0.093v0.414c0,0.215-0.002,0.429-0.009,0.642
				c-0.014,0.37-0.036,0.736-0.065,1.103v0.004c-0.286,3.588-1.298,6.974-2.887,10.009c-1.26,2.406-2.884,4.594-4.801,6.487
				c-0.295,0.29-0.595,0.575-0.904,0.853c-0.154,0.139-0.309,0.276-0.467,0.409c-0.002,0.003-0.002,0.004-0.004,0.006
				c-0.053,0.046-0.105,0.091-0.161,0.137c-0.766,0.647-1.567,1.252-2.406,1.809c-0.003,0.001-0.005,0.006-0.006,0.008
				c-0.493,0.327-0.994,0.635-1.511,0.928l-0.002,0.022c-0.965,0.55-1.969,1.042-3.007,1.469c-3.044,1.26-6.375,1.972-9.869,1.972
				h-0.053c-14.452,0-26.217-11.772-26.217-26.225v-0.124c0-0.001,0-0.005,0-0.007c0.173-14.282,11.627-25.83,25.88-26.011
				l0.39,0.018C57.77,16.115,69.246,27.229,69.78,41.193z"/>
		</g>
	</g>
</g>
</svg>
